PathFileType	4	(X/Y/Z)	./resultDataOpenSim/trcMotMarkerGrf/sub10/qtm-01-07.trc
DataRate	CameraRate	NumFrames	NumMarkers	Units	OrigDataRate	OrigDataStartFrame	OrigNumFrames
250.000000	250.000000	7	24	m	250.000000	59	464
Frame#	Time	L.Toe.Tip			R.Toe.Tip			L.Ankle.Lat			R.Ankle.Lat			L.Ankle.Med			R.Ankle.Med			L.Heel			R.Heel			L.Knee.Lat			R.Knee.Lat			L.Knee.Med			R.Knee.Med			L.Thigh.Upper			R.Thigh.Upper			L.ASIS			R.ASIS			V.Sacral			L.Acromium			R.Acromium			C7			L.Elbow			R.Elbow			L.Wrist.Lat			R.Wrist.Lat
		X1	Y1	Z1	X2	Y2	Z2	X3	Y3	Z3	X4	Y4	Z4	X5	Y5	Z5	X6	Y6	Z6	X7	Y7	Z7	X8	Y8	Z8	X9	Y9	Z9	X10	Y10	Z10	X11	Y11	Z11	X12	Y12	Z12	X13	Y13	Z13	X14	Y14	Z14	X15	Y15	Z15	X16	Y16	Z16	X17	Y17	Z17	X18	Y18	Z18	X19	Y19	Z19	X20	Y20	Z20	X21	Y21	Z21	X22	Y22	Z22	X23	Y23	Z23	X24	Y24	Z24

59	0.232	-1.4428674	0.053086427	-0.19095027	-0.69741733	0.041309599	0.054129175	-1.4389764	0.19108336	-0.22016399	-0.83637995	0.052173745	0.094348897	-1.4136204	0.18229832	-0.14032889	-0.82168607	0.081053446	0.011283855	-1.4818187	0.23824143	-0.17373314	-0.88777582	0.028780767	0.048434446	-1.1356767	0.42013918	-0.22054824	-0.85679435	0.45561957	0.11429979	-1.1189285	0.37374013	-0.11034574	-0.85398362	0.45873926	-0.014120299	-1.0548772	0.79006196	-0.23318188	-0.97606696	0.85777882	0.14934914	-0.98076509	0.8985092	-0.17922052	-0.93061385	0.93518001	0.05869848	-1.153713	0.92385015	-0.021461392	-1.0143483	1.3767276	-0.21489643	-1.0503972	1.3785388	0.11399757	-1.1198797	1.4101606	-0.060132708	-1.0994445	1.0417072	-0.26819649	-1.1917836	1.0635544	0.14247447	-0.96965853	0.83195234	-0.26030401	-1.1305093	0.83563242	0.19928974
60	0.236	-1.4380917	0.05489025	-0.19011836	-0.69726825	0.041087673	0.053898284	-1.4290758	0.19375707	-0.21878454	-0.83627347	0.052126068	0.094294772	-1.4037376	0.18436335	-0.1390009	-0.82151803	0.080917289	0.011143366	-1.4692635	0.24207728	-0.17195508	-0.8877973	0.028761017	0.048480889	-1.1248983	0.41948256	-0.2191894	-0.85336126	0.45569853	0.11472966	-1.107885	0.37266103	-0.1086891	-0.85197062	0.4584956	-0.013696203	-1.0478997	0.78981056	-0.23204488	-0.97000555	0.85914241	0.1506668	-0.97413678	0.89852386	-0.17763494	-0.92465385	0.93620018	0.059990671	-1.1471104	0.92442299	-0.020942197	-1.0081909	1.3775776	-0.21382639	-1.044184	1.3792557	0.11513607	-1.1139643	1.4110518	-0.059032354	-1.0948238	1.0431771	-0.26733586	-1.1838351	1.063623	0.14429869	-0.96628907	0.83245151	-0.26048457	-1.1219995	0.83583328	0.20133232
61	0.24	-1.4322181	0.056930801	-0.18922449	-0.69715331	0.040902008	0.053672043	-1.4189571	0.1962567	-0.21731487	-0.836206	0.052068148	0.094271093	-1.3939206	0.18632383	-0.13753592	-0.82140303	0.080813647	0.011042754	-1.4571406	0.24547112	-0.17017248	-0.88783203	0.028733962	0.048546124	-1.1139382	0.41895141	-0.21777961	-0.849877	0.45587372	0.11525006	-1.0966163	0.37202714	-0.10697109	-0.84998297	0.45825018	-0.013214048	-1.0410834	0.78972076	-0.23103002	-0.96416356	0.86042166	0.15190848	-0.96766163	0.89865324	-0.17617418	-0.91858162	0.93719372	0.061183642	-1.1409241	0.92514539	-0.020363469	-1.0021123	1.3784536	-0.2127979	-1.0379145	1.3799879	0.11626308	-1.1080046	1.4120266	-0.057928265	-1.0902221	1.0446521	-0.26653943	-1.1758732	1.0637056	0.14615529	-0.96291115	0.83297979	-0.26068061	-1.1136293	0.83601591	0.20326084
62	0.244	-1.4251317	0.059191601	-0.18812204	-0.69705223	0.040753054	0.05350918	-1.4087382	0.19863737	-0.21574663	-0.83617852	0.052004301	0.094279471	-1.3841843	0.18822214	-0.13589137	-0.82131106	0.080744662	0.010986221	-1.4457087	0.24845792	-0.16837486	-0.88787362	0.028701176	0.048625669	-1.1027151	0.41855691	-0.21633328	-0.84645973	0.45609552	0.11582118	-1.0851397	0.3718507	-0.10524076	-0.84798954	0.45800569	-0.012701538	-1.034282	0.78980841	-0.23007247	-0.95855164	0.86160763	0.15307757	-0.9612949	0.89892359	-0.17483244	-0.91243869	0.9381711	0.0622939	-1.1352407	0.92605979	-0.019762854	-0.99610303	1.3793631	-0.2118233	-1.03159	1.3807487	0.11738035	-1.1019969	1.4130704	-0.056820977	-1.0856148	1.0461426	-0.26572367	-1.1679014	1.0638108	0.14804519	-0.95951269	0.83357158	-0.26089828	-1.1052545	0.83620403	0.2051108
63	0.248	-1.4167091	0.06161679	-0.18676731	-0.69696135	0.040632614	0.053416501	-1.3985096	0.20095483	-0.21407434	-0.83618236	0.051938675	0.094318222	-1.3743823	0.19015422	-0.1340834	-0.82121607	0.080707554	0.010973613	-1.4349419	0.25110499	-0.16650706	-0.88791815	0.028666024	0.048713134	-1.0912187	0.41828214	-0.21487322	-0.84326443	0.45629848	0.1163936	-1.0735662	0.372044	-0.10346673	-0.84603563	0.45775428	-0.012186882	-1.0274093	0.79007762	-0.22907308	-0.9531196	0.86271754	0.15418461	-0.95493544	0.89936017	-0.17357215	-0.90639673	0.93918607	0.06342302	-1.1299552	0.92709907	-0.019173562	-0.99012796	1.3803036	-0.21090377	-1.0252316	1.3815576	0.1184836	-1.0959541	1.4141897	-0.055714664	-1.0809685	1.0476759	-0.26477946	-1.1599229	1.0639432	0.14995211	-0.9560863	0.83424745	-0.26113875	-1.0967798	0.83641819	0.20691689
64	0.252	-1.4068881	0.064116164	-0.18524441	-0.6968874	0.040532504	0.053360829	-1.3882705	0.2032109	-0.21229256	-0.83620401	0.051875247	0.094380568	-1.3643805	0.1921843	-0.13215853	-0.82111112	0.080698665	0.010997188	-1.424662	0.25347819	-0.16458059	-0.88796419	0.028632445	0.048802278	-1.0794683	0.41810836	-0.21343905	-0.84037537	0.45644487	0.1169386	-1.0619326	0.37252992	-0.10162731	-0.84417637	0.45750314	-0.011662857	-1.0204665	0.79050453	-0.22794498	-0.94780424	0.86378253	0.15523369	-0.9485213	0.89998307	-0.17236371	-0.9006002	0.94026957	0.06463777	-1.1247672	0.92811306	-0.01861997	-0.98416942	1.3812635	-0.21002687	-1.0188547	1.3824298	0.11956561	-1.0898977	1.4153888	-0.054614818	-1.0762704	1.0492681	-0.26364571	-1.1519589	1.0640991	0.15181044	-0.95264101	0.83500448	-0.26139328	-1.0881671	0.83667427	0.20869549
65	0.256	-1.3957416	0.066580538	-0.18365745	-0.69683542	0.040449936	0.053305576	-1.37793	0.2053451	-0.21040901	-0.83623472	0.051816671	0.094456101	-1.354161	0.19432228	-0.13015168	-0.8210093	0.080714856	0.011044155	-1.4146744	0.25560972	-0.16266674	-0.88801247	0.028603387	0.048886991	-1.0675279	0.41803939	-0.21204116	-0.83778703	0.45653708	0.11745461	-1.0502691	0.37325829	-0.099715967	-0.84245348	0.45726795	-0.011093957	-1.0134554	0.79106306	-0.22664706	-0.94256071	0.86481839	0.15621682	-0.94213299	0.90079739	-0.17124077	-0.89507999	0.94140886	0.065907887	-1.1193884	0.92898993	-0.018098139	-0.97823534	1.3822392	-0.20917	-1.0124507	1.3833651	0.12062049	-1.0838449	1.4166497	-0.053522176	-1.0715669	1.0508831	-0.26242584	-1.144055	1.0642584	0.1534863	-0.94918566	0.83583184	-0.261645	-1.0794014	0.83698392	0.21044561
